HIERARCHY
ROOT Hips
{
	OFFSET 0.000000 0.000000 0.000000 
	CHANNELS 6 Xposition Yposition Zposition Yrotation Zrotation Xrotation 
	JOINT Lumbar
	{
		OFFSET 0.000000 0.000000 0.000000 
		CHANNELS 3 Zrotation Xrotation Yrotation
		JOINT Neck
		{
			OFFSET 0.000000 0.445665 0.000000 
			CHANNELS 3 Zrotation Xrotation Yrotation
			End Site
			{
				OFFSET 0.000000 0.227535 0.000000 
			}
		}
		JOINT RightShoulder
		{
			OFFSET 0.019635 0.377685 0.194865 
			CHANNELS 3 Zrotation Xrotation Yrotation
			JOINT RightElbow
			{
				OFFSET 0.000000 -0.243375 0.000000 
				CHANNELS 2 Zrotation Yrotation
				JOINT RightWrist
				{
					OFFSET 0.000000 -0.264825 0.000000 
					CHANNELS 2 Zrotation Xrotation
					End Site
					{
						OFFSET 0.006600 -0.176220 0.000990 
					}
				}
			}
		}
		JOINT LeftShoulder
		{
			OFFSET 0.019635 0.377685 -0.194865 
			CHANNELS 3 Zrotation Xrotation Yrotation
			JOINT LeftElbow
			{
				OFFSET 0.000000 -0.243375 0.000000 
				CHANNELS 2 Zrotation Yrotation
				JOINT LeftWrist
				{
					OFFSET 0.000000 -0.264825 0.000000 
					CHANNELS 2 Zrotation Xrotation
					End Site
					{
						OFFSET 0.006600 -0.176220 -0.000990 
					}
				}
			}
		}
	}
	JOINT RightHip
	{
		OFFSET 0.052140 -0.069960 0.075570 
		CHANNELS 3 Zrotation Xrotation Yrotation
		JOINT RightKnee
		{
			OFFSET 0.000000 -0.402270 0.000000 
			CHANNELS 1 Zrotation
			JOINT RightAnkle
			{
				OFFSET 0.000000 -0.404085 0.000000 
				CHANNELS 3 Zrotation Xrotation Yrotation
				End Site
				{
					OFFSET 0.204105 -0.089430 0.008415 
				}
			}
		}
	}
	JOINT LeftHip
	{
		OFFSET 0.052140 -0.069960 -0.075570 
		CHANNELS 3 Zrotation Xrotation Yrotation
		JOINT LeftKnee
		{
			OFFSET 0.000000 -0.402270 0.000000 
			CHANNELS 1 Zrotation
			JOINT LeftAnkle
			{
				OFFSET 0.000000 -0.404085 0.000000 
				CHANNELS 3 Zrotation Xrotation Yrotation
				End Site
				{
					OFFSET 0.204105 -0.089430 -0.008415 
				}
			}
		}
	}
}
MOTION
Frames: 13
Frame Time: 0.02
-0.00558 0.0003 -0.00044 -177.60448 -31.11165 -3.73519 43.60584 1.16085 -5.73384 -13.28399 -0.98628 -0.52449 -28.80356 -14.09092 0.67004 39.51867 92.23115 5.24835 0.98671 -23.00635 16.8605 -7.23998 43.17544 -97.91663 9.28599 -1.12059 35.91768 -5.59957 -15.71632 -22.0712 -8.80183 -4.60792 -3.1894 36.76005 10.79957 8.4584 -27.7755 -7.76825 3.9697 2.78958
-0.00684 0.0001 -0.0076 -177.47086 -30.92153 -3.67897 43.46116 1.12259 -5.67491 -13.31027 -0.73051 -0.52549 -28.20227 -14.06876 0.88017 39.47698 92.13653 5.23064 0.97458 -22.74735 16.96856 -7.28931 43.59752 -97.92635 9.31153 -1.11708 35.61074 -5.04181 -14.95887 -22.01218 -8.81139 -4.67367 -3.22842 36.49409 11.08715 7.93715 -27.58783 -7.89891 4.00416 2.81472
-0.00809 -0.00011 -0.01475 -177.33739 -30.73196 -3.62288 43.31676 1.08438 -5.61594 -13.33666 -0.47428 -0.52648 -27.60148 -14.04656 1.09009 39.43435 92.04215 5.21294 0.96254 -22.48885 17.07595 -7.33842 44.01804 -97.93659 9.33733 -1.11361 35.30472 -4.48554 -14.20443 -21.95345 -8.82078 -4.73916 -3.26729 36.22932 11.37398 7.41632 -27.40122 -8.02934 4.03857 2.83983
-0.00934 -0.00032 -0.0219 -177.20413 -30.54244 -3.56683 43.17251 1.04622 -5.55717 -13.36289 -0.21912 -0.52748 -27.00184 -14.02446 1.29964 39.39266 91.94757 5.19523 0.95041 -22.23057 17.18363 -7.3876 44.43877 -97.94635 9.36283 -1.11012 34.99874 -3.92945 -13.44945 -21.89463 -8.83028 -4.80469 -3.30618 35.96423 11.66069 6.89645 -27.21418 -8.15964 4.07294 2.86491
-0.0106 -0.00053 -0.02906 -177.07085 -30.35234 -3.51068 43.02798 1.00802 -5.49849 -13.38893 0.03521 -0.52848 -26.40214 -14.0024 1.50927 39.35223 91.85342 5.17769 0.93829 -21.97199 17.29207 -7.437 44.86116 -97.95545 9.38797 -1.10656 34.69182 -3.37196 -12.69115 -21.83548 -8.84002 -4.87049 -3.34524 35.6978 11.94814 6.37672 -27.02598 -8.29006 4.10732 2.89
-0.01184 -0.00074 -0.03619 -176.93703 -30.16388 -3.45469 42.88383 0.96978 -5.43891 -13.41604 0.29547 -0.52947 -25.79907 -13.9799 1.71978 39.30493 91.75897 5.15975 0.92648 -21.71372 17.39724 -7.48548 45.27776 -97.96812 9.41515 -1.1033 34.38765 -2.81833 -11.94484 -21.7776 -8.84868 -4.93534 -3.3837 35.43655 12.23365 5.8537 -26.84274 -8.42046 4.14177 2.91514
-0.01311 -0.00094 -0.04337 -176.80433 -29.97245 -3.39847 42.73921 0.93168 -5.3813 -13.44098 0.54329 -0.53047 -25.20361 -13.95838 1.92826 39.27172 91.66346 5.14223 0.91376 -21.45486 17.50891 -7.53583 45.70546 -97.97343 9.43815 -1.09943 34.07844 -2.25751 -11.17545 -21.71728 -8.85947 -5.00202 -3.42332 35.16517 12.52267 5.33756 -26.64957 -8.55086 4.17613 2.94019
-0.01435 -0.00115 -0.0505 -176.67079 -29.78355 -3.34242 42.5948 0.89345 -5.32168 -13.4679 0.80295 -0.53147 -24.60082 -13.93582 2.13863 39.22513 91.57214 5.12504 0.90242 -21.19704 17.61454 -7.58431 46.12309 -97.98579 9.46509 -1.09616 33.77361 -1.70337 -10.42694 -21.65912 -8.86834 -5.06703 -3.46188 34.90312 12.80858 4.81563 -26.46582 -8.68108 4.21042 2.96523
-0.01556 -0.00136 -0.05759 -176.53539 -29.59849 -3.28672 42.45143 0.85504 -5.2603 -13.49738 1.07595 -0.53246 -23.98983 -13.91252 2.35141 39.16353 91.47315 5.10539 0.89064 -20.93837 17.71297 -7.6311 46.52788 -98.00585 9.4966 -1.0935 33.47505 -1.15693 -9.70533 -21.60397 -8.87467 -5.12996 -3.4991 34.65247 13.09033 4.284 -26.29254 -8.8119 4.24524 2.99065
-0.01697 -0.00155 -0.06496 -176.40815 -29.39355 -3.22941 42.30443 0.81759 -5.21116 -13.51256 1.26883 -0.53347 -23.42826 -13.89506 2.55063 39.1923 91.37982 5.09128 0.87498 -20.67821 17.85335 -7.68942 47.00496 -97.97887 9.50106 -1.08694 33.14317 -0.56477 -8.83308 -21.53259 -8.89506 -5.20472 -3.54391 34.33623 13.39493 3.80029 -26.05591 -8.94174 4.27885 3.01508
-0.01795 -0.00179 -0.07173 -176.26537 -29.22916 -3.17525 42.16362 0.77817 -5.13484 -13.55759 1.63276 -0.53445 -22.76119 -13.8643 2.77821 39.02795 91.29914 5.07098 0.87161 -20.4253 17.90493 -7.72227 47.33054 -98.05282 9.56302 -1.08884 32.87986 -0.07003 -8.27599 -21.49475 -8.88612 -5.2546 -3.57275 34.15834 13.652 3.22068 -25.95487 -9.07203 4.31383 3.04082
-0.0177 -0.00218 -0.07698 -176.06652 -29.18932 -3.13204 42.05282 0.73296 -4.99425 -13.68789 2.45382 -0.53517 -21.81173 -13.80456 3.08692 38.34945 91.04807 4.98708 0.86785 -20.15969 17.71307 -7.69342 47.22807 -98.39892 9.78317 -1.11327 32.8218 0.16256 -8.61392 -21.55605 -8.79302 -5.23489 -3.55692 34.36464 13.77164 2.33071 -26.21211 -9.2171 4.36246 3.07668
-0.01701 -0.00262 -0.0816 -175.85516 -29.18837 -3.09164 41.94647 0.68599 -4.82455 -13.84747 3.44825 -0.53588 -20.75534 -13.72997 3.42366 37.47503 90.84507 4.90474 0.88231 -19.90824 17.43216 -7.63718 46.97594 -98.8514 10.06244 -1.14689 32.83023 0.29621 -9.26254 -21.64989 -8.67113 -5.1904 -3.52519 34.70934 13.84463 1.35237 -26.60673 -9.36027 4.41073 3.11271
